<svg width="146" height="110" viewBox="0 0 146 110" fill="none" xmlns="http://www.w3.org/2000/svg">
<rect x="49" y="31" width="48" height="48" rx="24" fill="#80CB9C"/>
<rect x="49" y="31" width="48" height="48" rx="24" stroke="#D8EFE1" stroke-width="8"/>
<path d="M66.525 59.1749L70.075 55.6249C70.275 55.4249 70.5084 55.3291 70.775 55.3374C71.0417 55.3457 71.275 55.4499 71.475 55.6499C71.6584 55.8499 71.75 56.0832 71.75 56.3499C71.75 56.6166 71.6584 56.8499 71.475 57.0499L67.25 61.2999C67.05 61.4999 66.8167 61.5999 66.55 61.5999C66.2834 61.5999 66.05 61.4999 65.85 61.2999L63.7 59.1499C63.5167 58.9666 63.425 58.7332 63.425 58.4499C63.425 58.1666 63.5167 57.9332 63.7 57.7499C63.8834 57.5666 64.1167 57.4749 64.4 57.4749C64.6834 57.4749 64.9167 57.5666 65.1 57.7499L66.525 59.1749ZM66.525 51.1749L70.075 47.6249C70.275 47.4249 70.5084 47.3291 70.775 47.3374C71.0417 47.3457 71.275 47.4499 71.475 47.6499C71.6584 47.8499 71.75 48.0832 71.75 48.3499C71.75 48.6166 71.6584 48.8499 71.475 49.0499L67.25 53.2999C67.05 53.4999 66.8167 53.5999 66.55 53.5999C66.2834 53.5999 66.05 53.4999 65.85 53.2999L63.7 51.1499C63.5167 50.9666 63.425 50.7332 63.425 50.4499C63.425 50.1666 63.5167 49.9332 63.7 49.7499C63.8834 49.5666 64.1167 49.4749 64.4 49.4749C64.6834 49.4749 64.9167 49.5666 65.1 49.7499L66.525 51.1749ZM75 59.9999C74.7167 59.9999 74.4792 59.9041 74.2875 59.7124C74.0959 59.5207 74 59.2832 74 58.9999C74 58.7166 74.0959 58.4791 74.2875 58.2874C74.4792 58.0957 74.7167 57.9999 75 57.9999H82C82.2834 57.9999 82.5209 58.0957 82.7125 58.2874C82.9042 58.4791 83 58.7166 83 58.9999C83 59.2832 82.9042 59.5207 82.7125 59.7124C82.5209 59.9041 82.2834 59.9999 82 59.9999H75ZM75 51.9999C74.7167 51.9999 74.4792 51.9041 74.2875 51.7124C74.0959 51.5207 74 51.2832 74 50.9999C74 50.7166 74.0959 50.4791 74.2875 50.2874C74.4792 50.0957 74.7167 49.9999 75 49.9999H82C82.2834 49.9999 82.5209 50.0957 82.7125 50.2874C82.9042 50.4791 83 50.7166 83 50.9999C83 51.2832 82.9042 51.5207 82.7125 51.7124C82.5209 51.9041 82.2834 51.9999 82 51.9999H75Z" fill="#0F2715"/>
</svg>
