<svg width="146" height="110" viewBox="0 0 146 110" fill="none" xmlns="http://www.w3.org/2000/svg">
<rect x="49" y="31" width="48" height="48" rx="24" fill="#80CB9C"/>
<rect x="49" y="31" width="48" height="48" rx="24" stroke="#D8EFE1" stroke-width="8"/>
<path d="M68.5 49C68.0833 49 67.7292 49.1458 67.4375 49.4375C67.1458 49.7292 67 50.0833 67 50.5C67 50.9167 67.1458 51.2708 67.4375 51.5625C67.7292 51.8542 68.0833 52 68.5 52C68.9167 52 69.2708 51.8542 69.5625 51.5625C69.8542 51.2708 70 50.9167 70 50.5C70 50.0833 69.8542 49.7292 69.5625 49.4375C69.2708 49.1458 68.9167 49 68.5 49ZM68.5 59C68.0833 59 67.7292 59.1458 67.4375 59.4375C67.1458 59.7292 67 60.0833 67 60.5C67 60.9167 67.1458 61.2708 67.4375 61.5625C67.7292 61.8542 68.0833 62 68.5 62C68.9167 62 69.2708 61.8542 69.5625 61.5625C69.8542 61.2708 70 60.9167 70 60.5C70 60.0833 69.8542 59.7292 69.5625 59.4375C69.2708 59.1458 68.9167 59 68.5 59ZM65 46H81C81.2833 46 81.5208 46.0958 81.7125 46.2875C81.9042 46.4792 82 46.7167 82 47V54C82 54.2833 81.9042 54.5208 81.7125 54.7125C81.5208 54.9042 81.2833 55 81 55H65C64.7167 55 64.4792 54.9042 64.2875 54.7125C64.0958 54.5208 64 54.2833 64 54V47C64 46.7167 64.0958 46.4792 64.2875 46.2875C64.4792 46.0958 64.7167 46 65 46ZM65 56H81C81.2833 56 81.5208 56.0958 81.7125 56.2875C81.9042 56.4792 82 56.7167 82 57V64C82 64.2833 81.9042 64.5208 81.7125 64.7125C81.5208 64.9042 81.2833 65 81 65H65C64.7167 65 64.4792 64.9042 64.2875 64.7125C64.0958 64.5208 64 64.2833 64 64V57C64 56.7167 64.0958 56.4792 64.2875 56.2875C64.4792 56.0958 64.7167 56 65 56Z" fill="#0F2715"/>
</svg>
