<svg width="146" height="110" viewBox="0 0 146 110" fill="none" xmlns="http://www.w3.org/2000/svg">
<rect x="49" y="31" width="48" height="48" rx="24" fill="#80CB9C"/>
<rect x="49" y="31" width="48" height="48" rx="24" stroke="#D8EFE1" stroke-width="8"/>
<path d="M80.55 52.175L84.075 48.625C84.275 48.425 84.5125 48.325 84.7875 48.325C85.0625 48.325 85.3 48.425 85.5 48.625C85.7 48.825 85.8 49.0625 85.8 49.3375C85.8 49.6125 85.7 49.85 85.5 50.05L81.25 54.3C81.05 54.5 80.8167 54.6 80.55 54.6C80.2833 54.6 80.05 54.5 79.85 54.3L77.725 52.175C77.525 51.975 77.425 51.7375 77.425 51.4625C77.425 51.1875 77.525 50.95 77.725 50.75C77.925 50.55 78.1583 50.45 78.425 50.45C78.6917 50.45 78.925 50.55 79.125 50.75L80.55 52.175ZM72 55C70.9 55 69.9583 54.6083 69.175 53.825C68.3917 53.0417 68 52.1 68 51C68 49.9 68.3917 48.9583 69.175 48.175C69.9583 47.3917 70.9 47 72 47C73.1 47 74.0417 47.3917 74.825 48.175C75.6083 48.9583 76 49.9 76 51C76 52.1 75.6083 53.0417 74.825 53.825C74.0417 54.6083 73.1 55 72 55ZM64 61V60.2C64 59.6333 64.1458 59.1125 64.4375 58.6375C64.7292 58.1625 65.1167 57.8 65.6 57.55C66.6333 57.0333 67.6833 56.6458 68.75 56.3875C69.8167 56.1292 70.9 56 72 56C73.1 56 74.1833 56.1292 75.25 56.3875C76.3167 56.6458 77.3667 57.0333 78.4 57.55C78.8833 57.8 79.2708 58.1625 79.5625 58.6375C79.8542 59.1125 80 59.6333 80 60.2V61C80 61.55 79.8042 62.0208 79.4125 62.4125C79.0208 62.8042 78.55 63 78 63H66C65.45 63 64.9792 62.8042 64.5875 62.4125C64.1958 62.0208 64 61.55 64 61Z" fill="#0F2715"/>
</svg>
